<?xml version="1.0" encoding="utf-8"?>
<!-- Generator: Adobe Illustrator 18.0.0, SVG Export Plug-In . SVG Version: 6.00 Build 0)  -->
<!DOCTYPE svg PUBLIC "-//W3C//DTD SVG 1.1//EN" "http://www.w3.org/Graphics/SVG/1.1/DTD/svg11.dtd">
<svg version="1.1" xmlns="http://www.w3.org/2000/svg" xmlns:xlink="http://www.w3.org/1999/xlink" x="0px" y="0px"
	 viewBox="0 0 804.3 217.2" style="enable-background:new 0 0 804.3 217.2;shape-rendering:optimizeSpeed" xml:space="preserve">
<style type="text/css">
	.st0{display:none;}
	.st1{display:inline;fill:#C0413C;}
	.st2{display:inline;}
	.st3{font-family:'Impact';}
	.st4{font-size:274.7949;}
	.st5{fill:#FFFFFF;}
</style>
<g id="Layer_1" class="st0">
	<rect x="-189.8" y="-68.4" class="st1" width="1157" height="346.8"/>
</g>
<g id="Layer_2" class="st0">
	<text transform="matrix(1 0 0 1 -6.1732 217.2328)" class="st2 st3 st4">INFLATE</text>
</g>
<g id="Layer_3">
	<path class="st5" d="M61.6,0l4.9,108.7l-4.9,108.6H5.1c0,0-5.1-81.4-5.1-108.6C0,81.5,5.1,0,5.1,0H61.6z"/>
	<path class="st5" d="M210.4,0l5,108.7l-5,108.6h-49.5l-29.4-98.8v98.8H84.3c0,0-5-81.5-5-108.6c0-27.2,5-108.7,5-108.7h47.2
		l31.7,97.8V0H210.4z"/>
	<path class="st5" d="M233.1,0h95.7c0,0,2,17.3,2,23.1c0,5.1-2,20.4-2,20.4h-39.2c0,0,2,16.2,2,21.7c0,4.9-2,19.5-2,19.5h34.9
		c0,0,2.3,18,2.3,24c0,4.3-2.3,17.3-2.3,17.3h-34.9c0,0,2.5,33.9,2.5,45.2c0,11.5-2.5,46.1-2.5,46.1h-56.5c0,0-5-81.4-5-108.6
		C228.1,81.5,233.1,0,233.1,0z"/>
	<path class="st5" d="M398.9,0c0,0,2.8,81.5,2.8,108.7c0,16.3-2.8,65.1-2.8,65.1s12.5-1.1,16.7-1.1c4.4,0,17.6,1.1,17.6,1.1
		s1,16.1,1,21.4c0,5.5-1,22.1-1,22.1h-90.8c0,0-5.1-81.4-5.1-108.6S342.4,0,342.4,0H398.9z"/>
	<path class="st5" d="M551.4,0c0,0,17.2,81.5,21.2,108.7c4,27.1,11.1,108.6,11.1,108.6H526l-3-39c0,0-7.5,1-10,1
		c-2.5,0-10.2-1-10.2-1l-3.4,39H441c0,0,5.8-81.5,9.4-108.6C454,81.5,469.8,0,469.8,0H551.4z M521.5,139.7c-1.1-9.5-3.3-19.8-4.4-31
		c-1.8-17.9-2.4-38-4.2-60.2c-3.3,23.7-4.8,43.8-6.7,60.2c-1.4,12.4-3.5,22.7-4.1,31c0,0,7.2-1.1,9.6-1.1
		C514.1,138.5,521.5,139.7,521.5,139.7z"/>
	<path class="st5" d="M692,0c0,0,2,17.3,2,23.1c0,5.1-2,20.4-2,20.4s-13,1-17.3,1c-4.1,0-16.2-1-16.2-1s5,48.9,5,65.2
		c0,27.1-5,108.6-5,108.6h-56.5c0,0-5-81.4-5-108.6c0-16.3,5-65.2,5-65.2s-13,1.1-17.3,1.1c-4,0-16.1-1.1-16.1-1.1s-2-15.3-2-20.4
		c0-5.8,2-23.1,2-23.1H692z"/>
	<path class="st5" d="M704.8,0H799c0,0,1.5,17.3,1.5,23.1c0,5.1-1.5,20.4-1.5,20.4h-37.7c0,0,1.5,16.2,1.5,21.7
		c0,4.8-1.5,19.5-1.5,19.5h35.3c0,0,1.5,15.3,1.5,20.5c0,5.2-1.5,20.8-1.5,20.8h-35.3c0,0,1.5,18.1,1.5,24.2
		c0,5.9-1.5,23.6-1.5,23.6h41.5c0,0,1.5,16.1,1.5,21.4c0,5.5-1.5,22.1-1.5,22.1h-98c0,0-5-81.5-5-108.7C699.8,81.4,704.8,0,704.8,0z
		"/>
</g>
</svg>
